<svg width="20" height="20" viewBox="0 0 20 20" fill="none" xmlns="http://www.w3.org/2000/svg">
<path d="M16.6867 13.1485L12.9961 11.4946C12.8289 11.4229 12.6464 11.3941 12.4653 11.4108C12.2841 11.4274 12.11 11.489 11.9586 11.5899C11.9432 11.5997 11.9286 11.6107 11.9149 11.6227L9.98595 13.2633C9.96593 13.2742 9.94365 13.2803 9.92087 13.2812C9.89809 13.282 9.87544 13.2775 9.8547 13.268C8.61485 12.6696 7.33048 11.393 6.7297 10.1704C6.71969 10.1499 6.71449 10.1275 6.71449 10.1047C6.71449 10.082 6.71969 10.0595 6.7297 10.0391L8.37579 8.08598C8.38778 8.07167 8.39875 8.05653 8.4086 8.04067C8.50812 7.88872 8.56824 7.71438 8.58351 7.53338C8.59879 7.35238 8.56875 7.17043 8.4961 7.00395L6.85391 3.31958C6.76066 3.10208 6.59937 2.9207 6.39427 2.80266C6.18917 2.68461 5.95132 2.63627 5.71641 2.66489C4.69556 2.79926 3.75854 3.30067 3.08038 4.07545C2.40221 4.85023 2.02928 5.84539 2.03126 6.87504C2.03126 12.9922 7.00782 17.9688 13.125 17.9688C14.1547 17.9708 15.1498 17.5978 15.9246 16.9197C16.6994 16.2415 17.2008 15.3045 17.3352 14.2836C17.3637 14.0498 17.316 13.813 17.1992 13.6085C17.0824 13.404 16.9026 13.2426 16.6867 13.1485ZM13.125 17.0313C7.52501 17.0313 2.96876 12.475 2.96876 6.87504C2.96615 6.07343 3.25548 5.29828 3.7827 4.69443C4.30992 4.09058 5.03896 3.69933 5.8336 3.59379H5.85157C5.88305 3.59438 5.91362 3.60447 5.93928 3.62273C5.96493 3.64099 5.98446 3.66658 5.99532 3.69614L7.64376 7.37661C7.65316 7.39707 7.65803 7.41932 7.65803 7.44184C7.65803 7.46436 7.65316 7.48661 7.64376 7.50708L5.99454 9.46489C5.98224 9.47886 5.97101 9.49375 5.96095 9.50942C5.85775 9.66696 5.79698 9.84849 5.78452 10.0364C5.77207 10.2243 5.80835 10.4123 5.88985 10.5821C6.58282 12.0008 8.01251 13.4196 9.44688 14.1125C9.61766 14.1936 9.80653 14.229 9.99507 14.2153C10.1836 14.2016 10.3654 14.1393 10.5227 14.0344C10.5375 14.0243 10.5524 14.0133 10.5664 14.0016L12.4945 12.361C12.5136 12.3507 12.5346 12.3448 12.5562 12.3434C12.5778 12.3421 12.5994 12.3454 12.6195 12.3532L16.3109 14.0071C16.3411 14.0199 16.3664 14.0419 16.3834 14.07C16.4004 14.098 16.4081 14.1307 16.4055 14.1633C16.3005 14.9583 15.9096 15.6879 15.3059 16.2157C14.7022 16.7435 13.9269 17.0334 13.125 17.0313ZM11.4063 8.12504V5.00004C11.4063 4.87572 11.4556 4.7565 11.5436 4.66859C11.6315 4.58068 11.7507 4.53129 11.875 4.53129C11.9993 4.53129 12.1186 4.58068 12.2065 4.66859C12.2944 4.7565 12.3438 4.87572 12.3438 5.00004V6.99301L15.2938 4.04379C15.3826 3.96099 15.5001 3.91592 15.6216 3.91806C15.743 3.9202 15.8589 3.9694 15.9448 4.05528C16.0307 4.14116 16.0798 4.25703 16.082 4.37847C16.0841 4.49991 16.0391 4.61744 15.9563 4.70629L13.0063 7.65629H15C15.1243 7.65629 15.2436 7.70568 15.3315 7.79359C15.4194 7.8815 15.4688 8.00072 15.4688 8.12504C15.4688 8.24936 15.4194 8.36859 15.3315 8.4565C15.2436 8.54441 15.1243 8.59379 15 8.59379H11.875C11.7507 8.59379 11.6315 8.54441 11.5436 8.4565C11.4556 8.36859 11.4063 8.24936 11.4063 8.12504Z" fill="#1D2025"/>
</svg>
